<svg version="1" xmlns="http://www.w3.org/2000/svg" width="972" height="972" viewBox="0 0 729.000000 729.000000"><path d="M336.5 104.5c-16 2.2-16.5 2.3-26.9 4.5-48.9 10.7-93.8 35.2-129.1 70.5-13.9 13.9-19.4 20.3-29.2 34-23.6 33.3-40.7 76.4-45.8 115.5-3 23-2.7 56.1.5 75 .5 3 1.2 7.1 1.5 9 .3 1.9.8 4.2 1 5 .2.8.6 2.7.9 4.2.2 1.4 1.9 7.7 3.6 14 15.1 53.2 47.5 101.4 91.3 135.6 18 14.1 42.4 28 63.2 36.1 3.9 1.6 7.9 3.2 9 3.6 1.1.5 2.2.9 2.5 1 .3.1 3 .9 6 1.9 11.8 3.7 27.9 7.6 37.5 9 2.3.4 5 .8 6 1 11 2.1 49.1 2.9 62.4 1.3 17.4-2.1 21.1-2.7 32.6-5.5 30.1-7.3 53.1-16.7 79.7-32.7 14.2-8.5 33-23.5 46.9-37.4 43.2-43.2 69.8-99.6 75.6-160.6 1.5-15.3.8-50.6-1.2-60.6-.3-1.3-.7-4-1-5.9-1.9-14.6-9.3-40.9-16.2-57.5-14-33.4-32.5-61-58.3-86.5-35-34.8-77.9-58.3-126-69.4-9.3-2.1-14.4-3-29.5-5.2-8.9-1.2-47.1-1.2-57 .1z"/></svg>